<svg version="1.1" xmlns="http://www.w3.org/2000/svg" xmlns:xlink="http://www.w3.org/1999/xlink" x="0px" y="0px" viewBox="0 0 240 270" enable-background="new 0 0 240 270" xml:space="preserve">
 <defs>
  <style type="text/css">
   <![CDATA[
    .fil1 {fill:#373435;fill-rule:nonzero}
    .fil0 {fill:#373435;fill-rule:nonzero}
    .fil2 {fill:#F79758;fill-rule:nonzero}
   ]]>
  </style>
 </defs>
 <g>
  <title>Layer 1</title>
  <metadata id="CorelCorpID_0Corel-Layer"/>
  <g stroke="null" id="svg_17">
   <path stroke="null" class="fil1" d="m234.982203,52.727609l-0.147508,-1.106307l-5.45778,1.180061c0,0 -8.260429,22.642423 -9.587998,25.740083c-1.327568,3.171415 -10.03052,28.321468 -11.136827,30.976607c-1.106307,2.655136 -3.908953,12.464395 -5.457783,13.054426c-1.54883,0.663784 -16.152087,8.039166 -18.807224,9.514241c-0.442523,0.221261 -1.327568,1.770094 -1.917599,2.138862c10.104272,-13.644459 16.4471,-32.00916 16.4471,-50.595122c0,-44.547306 -34.295525,-80.612927 -76.482712,-80.612927c-42.260939,0 -76.482712,36.065621 -76.482712,80.612927c0,20.946086 7.596645,40.048325 20.061041,54.356565c-1.253814,-0.663784 -2.360124,-1.253814 -3.097662,-1.54883c-2.72889,-1.180061 -17.995932,-7.15412 -19.618516,-7.670397c-1.54883,-0.442523 -5.236522,-9.883013 -6.637844,-12.464395c-1.401322,-2.507631 -12.464395,-26.772638 -14.086979,-29.72279c-1.622586,-3.023908 -12.021873,-24.707532 -12.021873,-24.707532l-5.531537,-0.737538l0,1.180063c0,0 3.245167,0.221261 4.351474,1.180061c1.180063,0.885045 1.622586,2.286367 1.622586,2.950152c0,0.737538 8.112919,17.774671 8.112919,17.774671c0,0 12.243134,25.666331 12.685657,26.551377c0.442523,0.958799 6.711597,16.889625 7.596645,19.839777c0.958799,3.023908 15.045778,8.334181 20.134792,11.358089c4.572737,2.72889 13.791964,5.089014 15.41455,5.457783c3.908951,4.572737 10.694302,13.496948 17.774671,26.846389c0,0 0,0 0,0c-5.089014,-1.180061 -40.859617,1.843847 -40.859617,1.843847l-3.466431,-2.360124l-33.410482,-26.993897c0,0 -6.269075,-0.221261 -8.112919,-0.221261c-1.843845,0 -0.663784,0.958799 -0.663784,0.958799c0,0 6.195321,1.106307 7.375381,0.442523c1.106307,-0.663784 40.638356,35.991864 42.260939,36.213126c1.475078,0.221261 34.443035,-3.245167 39.974572,-3.835197c2.950154,6.047813 5.826552,12.759411 8.481688,20.2823c-6.195321,5.01526 -26.920143,21.60987 -30.017805,25.150052c0,0 -38.573247,-15.045778 -39.974569,-15.045778c-0.663787,0 -3.171415,-0.073754 -4.793999,0c-1.69634,0.147508 -0.958799,0.958799 -0.958799,0.958799l5.752798,0.221261l40.19583,16.373349c0,0 23.306208,-13.201936 32.377929,-20.061041c4.867753,15.193288 8.776703,33.18922 10.473043,53.987799l0,0c0.295015,2.655136 2.433875,4.793996 5.089014,4.793996c2.655136,0 4.793996,-2.13886 5.089014,-4.793996l0,0c1.991352,-23.969992 6.859105,-44.104786 12.685657,-60.625643c6.416582,7.891661 28.837744,27.436422 28.837744,27.436422l42.629708,-8.039166l5.679044,0.885045c0,0 0.885045,-0.59003 -0.663784,-1.032553c-1.622583,-0.516279 -4.130215,-0.885048 -4.793999,-1.032556c-1.327568,-0.221261 -42.113431,6.785354 -42.113431,6.785354c-2.802647,-4.793999 -25.887593,-32.377929 -25.887593,-32.377929c0,0 -0.368769,0 -0.958799,0c1.327568,-3.245169 2.655139,-6.342828 3.982707,-9.219229c3.318923,0 39.237034,0.295018 40.712109,-0.073754c1.622583,-0.368769 37.393186,-40.638353 38.573247,-40.048323c1.253817,0.516277 7.30163,-1.180061 7.30163,-1.180061c0,0 1.106307,-1.032556 -0.737538,-0.885048c-1.843847,0.221261 -8.039168,1.032556 -8.039168,1.032556l-30.681589,30.091559l-3.245169,2.581383c0,0 -35.918111,0.442523 -40.859617,2.13886c0,0 0,0 0,0c11.505596,-23.084944 22.642423,-33.631741 23.084946,-34.074263l0.221261,0.073754c0,0 10.325536,-3.908953 15.119534,-7.375384c4.793999,-3.466428 18.290947,-10.104272 18.880978,-13.201933c0.663784,-3.097659 5.310275,-19.544762 5.679044,-20.503561c0.368769,-0.958802 10.104274,-27.58393 10.104274,-27.58393c0,0 6.416582,-17.774671 6.342828,-18.512209c-0.073754,-0.663784 0.221261,-2.065109 1.327568,-3.097662c1.032553,-1.032553 4.277722,-1.622583 4.277722,-1.622583l-0.000003,0zm-77.146497,30.534081c0,20.577317 -15.857072,37.319433 -35.401834,37.319433c-19.544762,0 -35.401834,-16.742115 -35.401834,-37.319433c0,-20.651069 15.857072,-37.393186 35.401834,-37.393186c19.544762,0 35.401834,16.742118 35.401834,37.393186z" id="svg_6"/>
   <path stroke="null" class="fil2" d="m75.083919,20.202173l8.481691,12.390642l0,0c2.360121,3.540184 6.932859,4.646491 10.325533,2.507631c3.392677,-2.212616 4.203969,-6.859105 1.917601,-10.473043l0,0l-8.112922,-12.980672l-7.449135,4.572737l-5.162768,3.982705z" id="svg_7"/>
   <path stroke="null" class="fil2" d="m65.348417,137.323241l12.464395,-8.70295l-0.073754,0c3.540182,-2.433878 4.572735,-7.006613 2.286367,-10.399289c-2.212614,-3.318923 -6.859105,-4.056461 -10.399289,-1.696337l-0.073754,-0.073754l-12.833164,8.70295c0,0 2.72889,4.572737 3.982707,6.490336c1.327568,1.917599 4.646489,5.679044 4.646489,5.679044l0.000003,0z" id="svg_8"/>
   <path stroke="null" class="fil2" d="m46.393683,75.960063l15.119534,2.433875l0,0c4.203966,0.737538 8.112919,-1.917599 8.850457,-5.826552c0.663784,-3.982707 -2.13886,-7.817904 -6.342828,-8.555442l0,0l-14.972024,-2.728893c0,0 -0.368772,0.295015 -1.548832,5.457783c-1.106307,5.162768 -1.106307,9.219229 -1.106307,9.219229z" id="svg_9"/>
   <path stroke="null" class="fil2" d="m56.129188,43.287119l12.906918,8.702952l0,0c3.540184,2.360121 8.186676,1.54883 10.473043,-1.770094c2.212614,-3.31892 1.180061,-7.965412 -2.286367,-10.399289l0,0l-12.906921,-8.70295l-4.720242,6.342828l-3.466431,5.826552z" id="svg_10"/>
   <path stroke="null" class="fil2" d="m49.270083,107.747959l15.119532,-2.950152l0,0c4.130215,-0.885048 6.932861,-4.720245 6.121567,-8.629198c-0.737538,-3.982707 -4.720242,-6.490336 -8.924211,-5.752798l0,0l-15.193288,2.728893c0,0 0.442523,3.982705 1.032553,6.859105c0.59003,2.802644 1.843847,7.74415 1.843847,7.74415z" id="svg_11"/>
   <path stroke="null" class="fil2" d="m170.226348,20.202173l-8.481688,12.390642l0,0c-2.360124,3.540184 -6.932859,4.646491 -10.325536,2.507631c-3.392674,-2.212616 -4.277722,-6.859105 -1.991352,-10.473043l0,0l8.112919,-12.980672l7.522892,4.572737l5.162765,3.982705z" id="svg_12"/>
   <path stroke="null" class="fil2" d="m179.961853,137.323241l-12.464395,-8.70295l0,0c-3.466431,-2.433878 -4.498984,-7.006613 -2.28637,-10.399289c2.28637,-3.318923 6.932861,-4.056461 10.473043,-1.696337l0,-0.073754l12.906918,8.70295c0,0 -2.72889,4.572737 -4.056458,6.490336c-1.253814,1.917599 -4.572737,5.679044 -4.572737,5.679044z" id="svg_13"/>
   <path stroke="null" class="fil2" d="m198.916585,75.960063l-15.119532,2.433875l0,0c-4.203969,0.737538 -8.186676,-1.917599 -8.85046,-5.826552c-0.663784,-3.982707 2.13886,-7.817904 6.342828,-8.555442l-0.073754,0l14.972027,-2.728893c0,0 0.442523,0.295015 1.54883,5.457783c1.180061,5.162768 1.180061,9.219229 1.180061,9.219229z" id="svg_14"/>
   <path stroke="null" class="fil2" d="m189.181082,43.287119l-12.906921,8.702952l0,0c-3.540182,2.360121 -8.260427,1.54883 -10.473041,-1.770094c-2.28637,-3.31892 -1.253817,-7.965412 2.286367,-10.399289l0,0l12.906918,-8.70295l4.720245,6.342828l3.466431,5.826552z" id="svg_15"/>
   <path stroke="null" class="fil2" d="m196.040187,107.747959l-15.119534,-2.950152l0,0c-4.203969,-0.885048 -6.932859,-4.720245 -6.195321,-8.629198c0.811292,-3.982707 4.793999,-6.490336 8.997965,-5.752798l0,0l15.193288,2.728893c0,0 -0.516277,3.982705 -1.032553,6.859105c-0.59003,2.802644 -1.843845,7.74415 -1.843845,7.74415z" id="svg_16"/>
  </g>
 </g>
</svg>