<?xml version="1.0" encoding="utf-8"?>
<!-- Svg Vector Icons : http://www.onlinewebfonts.com/icon -->
<!DOCTYPE svg PUBLIC "-//W3C//DTD SVG 1.1//EN" "http://www.w3.org/Graphics/SVG/1.1/DTD/svg11.dtd">
<svg version="1.1" xmlns="http://www.w3.org/2000/svg" xmlns:xlink="http://www.w3.org/1999/xlink" x="0px" y="0px" viewBox="0 0 1000 1000" enable-background="new 0 0 1000 1000" xml:space="preserve">
<metadata> Svg Vector Icons : http://www.onlinewebfonts.com/icon </metadata>
<g><g><g><path d="M398,376.9c-14.4,4.5-25.7-3.4-39.1-15.4c-18.7-16.9-40.8-32-64-41.6c-17-7-34.2-5.5-45.9,9.7c-11,14.3-10.9,37.3-15.2,54.8c-10.3,42.1-25,83.1-43.8,122.2c-10.5,21.7-31.3,33.6-46.8,52.2c-12.5,14.9-22.8,31.3-30.7,49.1c-3.6,7.9-6.9,16-7.8,24.7c-0.5,5,0.8,10.3,2,15.4c0.9,3.7,3,4.2,5,0.9c12.9-21.4,22-46,37.1-66.9c15.8-22,33.9-42.2,53-61.3c7.3-7.3,36.9-28.5,38.2-38.3c1.3-10.6,10.9-102.3,15.1-127.9c0.6-3.8,4.2-5,7.5-3c21.1,12.8,85.6,51.4,84.5,54.5c-12.7,35.4-25.6,73.4-40.5,110.5c-2.8,7.1-13.3,12.1-21.2,16c-33.6,16.4-67.5,32.5-103.6,49.7c-3.4,1.6-9.3,2.6-13.1,2.5c-6.4,0-13,1.2-17,6.1c-4.5,5.4-7.9,12.9-3.8,19.7c6.2,10.3,17.4,17.7,26.3,25.6c1.2,1.1,2.4,2.1,3.6,3.2c2,1.8,5.4,5.7,7.6,8.8c11.2,15.6,22.3,31.2,33.5,46.8c11.1,15.5,22.1,30.9,33.2,46.4c8.7,12.2,21.5,23,17,39.1c-7.7,27.3-26,47.4-42.9,69.4c-19.3,25.2-38.8,50.3-58.4,75.3c-5.1,6.5-11.8,13-19.2,16.2c-21.2,9-26.1,22.4-15.4,46.1c1.6,3.5,5,3.8,7.5,1c52.6-61.4,112.2-121.4,159.1-186.9c2.2-3.1,3.1-7.3,1.8-9.2c-1.3-1.9-0.1-1.6,3.2,0.3c3.9,2.3,7.9,4.5,11.8,6.6c3.4,1.8,6.9-0.1,6.4-3.8c-3.3-24.1-42.4-59.8-55.2-76.1c-13.2-16.9-26.5-33.7-39.8-50.6c-10.1-12.8-14.9-27.8-26.8-38.7c-2.8-2.6-2.4-4.9,1.3-5.8c18-4.2,61.2-14.8,73.8-24.9c3-2.4,3.9-2.6,4.5,1.2c2.9,19.1,6.2,38.1,8.2,57.3c11.3,107.9,72.4,177.6,166.6,225.1c13.2,6.7,25.3,10.5,37.3,11.7c3.8,0.4,7.1,0.4,7.3,0.4c0.1,0,0.3,0,0.4,0c0.3,0,0.6,0,0.9,0c14.2-0.3,28.4-4.2,44.2-12.1c94.1-47.5,155.3-117.2,166.6-225.1c2-19.2,5.3-38.2,8.2-57.3c0.6-3.8,1.5-3.6,4.5-1.2c12.5,10,55.7,20.7,73.8,24.9c3.7,0.9,4.1,3.2,1.3,5.8c-12,10.9-16.7,25.9-26.8,38.7c-13.3,16.8-26.6,33.7-39.8,50.6c-12.8,16.3-52,52-55.2,76.1c-0.5,3.8,3,5.6,6.4,3.8c3.9-2,7.9-4.3,11.8-6.6c3.3-1.9,4.4-2.3,3.2-0.3c-1.3,2-0.4,6.2,1.8,9.3c46.9,65.6,106.5,125.6,159.1,186.9c2.5,2.9,5.9,2.5,7.5-1c10.6-23.7,5.8-37.1-15.4-46.1c-7.4-3.1-14.1-9.7-19.2-16.2c-19.6-24.9-39.1-50.1-58.4-75.3c-16.8-22-35.2-42.1-42.9-69.4c-4.5-16.1,8.2-26.9,17-39.1c11.1-15.5,22.1-30.9,33.2-46.4c11.2-15.6,22.3-31.2,33.4-46.8c2.2-3.1,5.6-7,7.6-8.8c1.2-1.1,2.4-2.1,3.6-3.2c8.9-7.9,20-15.3,26.3-25.6c4.1-6.8,0.7-14.3-3.8-19.7c-4.1-4.9-10.7-6.1-17-6.1c-3.8,0-9.7-0.9-13.1-2.5c-36.2-17.2-70-33.3-103.6-49.7c-8-3.9-18.4-8.9-21.2-16c-14.9-37.1-27.7-75.1-40.5-110.5c-1.1-3.1,63.4-41.7,84.5-54.5c3.3-2,6.9-0.7,7.5,3c4.3,25.6,13.8,117.3,15.1,127.9c1.2,9.8,30.8,31,38.2,38.3c19.1,19.1,37.2,39.4,53,61.3c15.1,20.9,24.2,45.5,37.1,66.9c2,3.3,4.1,2.8,5-0.9c1.2-5.2,2.5-10.5,2-15.4c-1-8.7-4.3-16.7-7.8-24.7c-7.9-17.7-18.3-34.2-30.7-49.1c-15.5-18.5-36.3-30.4-46.8-52.2c-18.8-39-33.5-80.1-43.8-122.2c-4.3-17.5-4.2-40.5-15.2-54.8c-11.6-15.1-28.9-16.7-45.9-9.7c-23.2,9.6-45.3,24.7-64,41.6c-13.3,12-24.6,19.9-39.1,15.4c-3.6-1.1-4.9-5.4-3.1-8.8c7.5-14.3,15.1-28.7,23.3-44.3c1.8-3.4,6.3-6.1,10.1-6.2c38.6-1.4,71-12.9,63.9-70c-0.5-3.8,1.2-4.7,4-2c29.4,28.5,57,58.9,81.1,91.9c23.2,31.7,38.1,66.7,57.2,100.1c1.9,3.3,7.2,5.5,8.7,2c6.3-15-21.7-66.4-26.4-73c-31.3-44.7-66.4-87-102-128.4c-13.7-16-21.1-31-16.6-51.6c4.3-20,4.7-38.1-20.8-40.3c-3.8-0.3-6-3.2-5-6.8c12.1-45.6,6.7-98.1,60.1-116.7c3.6-1.2,4.8-4.6,2-7.1c-16.7-14.8-36.2,3.2-48.3,18.3c-17.5,22-28.1,47.8-26,76.4c1.2,15.2-2.1,30.8-4.1,46.2c-0.5,3.8-3.4,5.2-6.7,3.2c-31.7-19.6-60.2-37.2-88.2-54.4c-3.2-2-3.1-2,0.7-1.7c10.1,1,24.2-4.3,31.6-6.2c6.1-1.6,43.1-7.5,35.1-18.3c-1.9-2.5-5.3-3.5-8.4-3.2c-13.2,1.1-27.9,7.4-40.8,10.6c-3.4,0.9-12.6,1.4-19.2,2.5c-3.7,0.6-4.1,0.1-1.1-2.2c11.2-8.5,35.2-26.4,46.9-32.7c3.3-1.8,3.7-3.8,0.2-5.2c-27.3-11.1-37.9,16.8-49.8,25c-3.1,2.2-8.7,0.2-11.5-2.4c-16.2-14.9-29.4-31.7-41.7-38.2c-3.4-1.8-6.6-2.6-6.8-2.6c-0.3,0-0.7,0-0.9,0c-0.2,0-3.5,0.6-6.8,2.4c-12.2,6.6-25.5,23.5-41.7,38.4c-2.8,2.6-8.4,4.5-11.6,2.4c-11.9-8.2-22.6-36.1-49.9-25c-3.5,1.4-3.1,3.4,0.2,5.2c11.7,6.3,35.6,24.2,46.9,32.7c3,2.3,2.7,2.8-1.1,2.2c-6.6-1.1-15.8-1.6-19.2-2.5c-12.9-3.3-27.6-9.5-40.8-10.6c-3.1-0.3-6.5,0.7-8.4,3.2c-8.1,10.8,29,16.7,35.1,18.3c7.5,1.9,21.6,7.2,31.6,6.2c3.8-0.4,3.9-0.3,0.7,1.7c-27.9,17.2-56.4,34.8-88.1,54.4c-3.2,2-6.2,0.5-6.7-3.2c-2.1-15.4-5.3-30.9-4.1-46.2c2.2-28.6-8.4-54.4-26-76.4c-12.1-15.1-31.6-33.1-48.3-18.3c-2.8,2.5-1.6,5.9,2,7.1c53.4,18.6,48.1,71,60.1,116.7c1,3.7-1.2,6.5-5,6.8c-25.5,2.2-25.1,20.3-20.8,40.3c4.4,20.6-2.9,35.6-16.6,51.6c-35.6,41.5-70.7,83.7-102,128.4c-4.7,6.7-32.7,58-26.4,73c1.5,3.5,6.8,1.3,8.7-2c19.2-33.4,34-68.4,57.2-100.1c24.2-33,51.8-63.4,81.1-91.9c2.7-2.7,4.4-1.7,4,2c-7.1,57.1,25.3,68.6,63.9,70c3.8,0.1,8.3,2.9,10.1,6.2c8.2,15.6,15.8,30,23.4,44.3C402.9,371.5,401.6,375.8,398,376.9z M563.6,161.3c2.3-9,4.7-18,7.2-27.6c1-3.7,4.7-5.8,8.3-4.7c21.9,6.6,46.3,15.3,58.9,45.3c9.9,23.7,24.8,45.2,36.3,68.3c10.9,22-6.2,30.1-21.9,33.2c-8.7,1.7-27.5-5.9-27.8-10.1c-2.8-43.6-33.5-61-61.7-75.3c-3.4-1.7-5.4-6.1-4.4-9.8C560.2,174.1,561.9,167.7,563.6,161.3z M375.4,265.7c-0.3,4.3-19.1,11.8-27.8,10.1c-15.7-3.1-32.8-11.2-21.9-33.2c11.4-23.1,26.4-44.6,36.3-68.3c12.6-30.1,36.9-38.7,58.9-45.3c3.6-1.1,7.4,1,8.3,4.7c4.3,16.4,8.2,31.3,12.3,46.9c1,3.7-1,8-4.4,9.8C408.9,204.7,378.1,222,375.4,265.7z"/></g></g><g></g><g></g><g></g><g></g><g></g><g></g><g></g><g></g><g></g><g></g><g></g><g></g><g></g><g></g><g></g></g>
</svg>